<svg width="200" height="160" viewBox="0 0 200 160" xmlns="http://www.w3.org/2000/svg">
  <g fill="none" fill-rule="evenodd">
    <path d="M59.212 10C25.737 43.745 9 69.497 9 87.255 9 113.892 46.967 136 87.717 136S172 109.199 172 87.255c0-14.63-11.582-40.381-34.746-77.255L125.12 30.104s-34.392-12.256-55.688 0L59.212 10z" stroke="#5E6973" stroke-width="5" fill="#9FFFF5"/>
    <g transform="translate(38 58)">
      <path d="M.536.525l14.23 19.852" stroke="#000" stroke-width="3"/>
      <ellipse fill="#000" cx="4" cy="41.5" rx="4" ry="13.5"/>
      <path d="M106.462 1.7L93.538 21.475" stroke="#000" stroke-width="3"/>
      <ellipse fill="#000" transform="matrix(-1 0 0 1 198 0)" cx="99" cy="42.5" rx="4" ry="13.5"/>
    </g>
    <path d="M63.58 100.31c-2.806 16.92 4.564 16.92 22.11 0 16.116 14.437 26.22 13.334 30.31-3.31" stroke="#000" stroke-width="5"/>
  </g>
</svg>
