<svg viewBox="0 0 101 82" xmlns="http://www.w3.org/2000/svg">
  <g fill="none" fill-rule="evenodd">
    <path stroke="#979797" fill="#D8D8D8" d="M1.201.5h97.98v79H1.201z"/>
    <path d="M5.285 22.191C13.805 3.39 13.49-4.836 24.47 4.173c10.98 9.01 12.552 11.366 15.2 13.925 2.65 2.559 18.659 2.762 21.887 1.38 3.228-1.38 15.086-22.777 19.662-19.04 4.576 3.735 8.656 13.586 11.65 19.04 2.995 5.456 15.855 45.602-4.245 52.468-20.1 6.866-67.202 12.13-77.451 3.73-10.25-8.4-14.408-34.683-5.888-53.485z" stroke="#383838" stroke-width="2" fill="#8080FF"/>
    <ellipse fill="#383838" cx="27.232" cy="39.5" rx="3.061" ry="6.5"/>
    <ellipse fill="#383838" cx="72.13" cy="38.5" rx="3.061" ry="6.5"/>
    <path d="M13.966 57c16.475 17.903 29.023 11.034 35.282 0 12.342 15.305 30.566 4.73 35.127 0" stroke="#383838" stroke-width="5"/>
  </g>
</svg>
