<svg viewBox="0 0 101 82" version="1.1" xmlns="http://www.w3.org/2000/svg" xmlns:xlink="http://www.w3.org/1999/xlink">
    <g stroke="none" stroke-width="1" fill="none" fill-rule="evenodd">
        <rect stroke="#979797" fill="#D8D8D8" x="1.20117432" y="0.5" width="97.9795918" height="79"></rect>
        <path d="M5.28511261,22.1914254 C13.8052796,3.38970657 13.4900981,-4.83616689 24.4701181,4.17303053 C35.450138,13.1822279 37.0219389,15.5390029 39.6706955,18.097926 C42.3194521,20.656849 58.3290296,20.859969 61.5568166,19.4789475 C64.7846037,18.097926 76.6434359,-3.29867494 81.2192143,0.437177793 C85.7949926,4.17303053 89.874899,14.0238639 92.8696366,19.4789475 C95.8643741,24.9340311 108.72419,65.07987 88.6244395,71.946103 C68.5246891,78.812336 21.4219947,84.0769339 11.1729494,75.6761245 C0.923904121,67.2753152 -3.23505435,40.9931442 5.28511261,22.1914254 Z" stroke="#383838" stroke-width="2" fill="#8080FF"></path>
        <ellipse fill="#383838" cx="27.2317866" cy="39.5" rx="3.06122449" ry="6.5"></ellipse>
        <ellipse fill="#383838" cx="72.1297458" cy="38.5" rx="3.06122449" ry="6.5"></ellipse>
        <path d="M13.9664804,57 C30.4408446,74.9025052 42.9885432,68.0340609 49.2476996,57 C61.5896981,72.3049143 79.8143487,61.7303866 84.3746437,57" stroke="#383838" stroke-width="5"></path>
    </g>
</svg>
