<svg viewBox="0 0 400 324" xmlns="http://www.w3.org/2000/svg">
  <g fill="none" fill-rule="evenodd">
    <g transform="translate(16.95 176.22)">
      <path d="M101.51 123.952c37.512-9.353 53.944-24.93 52.542-30.557-1.403-5.627-27.922-5.66-65.433 3.692-37.512 9.353-72.367 20.695-63.613 30.233 8.754 9.538 38.993 5.985 76.505-3.368z" fill="#BDBDBD"/>
      <path d="M24.572 102.78c-3.742 3.356-12.706 17.797-8.359 20.799 4.348 3.002 17.547-12.852 17.547-20.799" stroke="#5E6973" stroke-width="2" fill="#83D1C9"/>
      <path d="M71.055 0C39.866 7.995-2.126 43.532.084 78.085 2.109 109.752 34.91 114.66 51.77 114.66c0 0-10.085 13.88-6.396 16.182 3.69 2.301 20.968-16.182 20.968-16.182 7.85 3.099 57.203-18.55 65.633-28.142 11.047-1.23 16.57-2.9 16.57-5.006 0-3.16-7.308-3.427-13.152-3.427-5.938 0 10.252-16.335 3.594-35.266-3.497-9.943 7.502-19.752 4.775-22.51-2.726-2.757-11.358 4.519-16.964 5.056-41.245 3.951-44.835 10.853-49.038 7.44C71.02 27.33 67.136 10.509 71.055 0z" stroke="#5E6973" stroke-width="3" fill="#9FFFF5"/>
      <path d="M9.897 55.417L15.05 65.52M39.509 64.52l8.16-13.513" stroke="#000" stroke-width="3"/>
      <ellipse fill="#000" cx="43.05" cy="72.78" rx="2" ry="7"/>
      <ellipse fill="#000" cx="12.05" cy="72.78" rx="2" ry="7"/>
      <g transform="translate(65.05 6.209)" fill="#D8D8D8" stroke="#7E7E7E" stroke-width="2">
        <path d="M2.185 9.571c-2.913 13.667-2.913 23.844 0 30.533 2.578 12.404 42.536 15.428 48.967 0 2.464-6.792 2.464-16.969 0-30.533"/>
        <ellipse cx="26.5" cy="10.571" rx="24.5" ry="9"/>
      </g>
      <path d="M45.22 31.408c14.827-5.996 25.768 1.762 25.768 1.762 3.99-5.875 14.87-12.399 32.64-19.573 0 17.683-4.245 38.612-10.217 46.871-16.596 22.955-73.941-18.646-48.19-29.06z" fill="#9FFFF5"/>
      <path d="M45.22 31.408c14.827-5.996 25.768 1.762 25.768 1.762 3.99-5.875 14.87-12.399 32.64-19.573-1.23 25.633-4.103 40.08-8.615 43.344" stroke="#5E6973" stroke-width="3"/>
      <path d="M15.05 89.702c0 7.5 6.853 8.674 12 2 0 6.5 11.459 8.527 15-2" stroke="#000" stroke-width="3"/>
    </g>
    <path d="M169.503 154.803c5.87-13.426 11.863-22.143 17.98-26.152 9.177-6.013 25.251-2.892 20.95 10.02-2.869 8.607-15.845 13.985-38.93 16.132z" stroke="#F75B00" stroke-width="3" fill="#FFF395"/>
    <path d="M269.595 80.629c1.814-6.293 3.804-10.415 5.968-12.365 3.246-2.925 9.305-1.747 8.06 4.283-.83 4.02-5.507 6.714-14.028 8.082z" stroke="#F75B00" fill="#FFF395"/>
    <path fill="#FFF395" d="M117.583 176.073l10.87-73.01 5.552 59.603 13.376-19.484.208 22.432 32.933-7.152-21.734 16.725L209.811 203l-71.91-13.183z"/>
    <path stroke="#F75B00" stroke-width="3" d="M120.947 177.834l6.187-56.696 6.871 41.528 12.348-14.74 1.236 17.688 17.7-1.238-6.5 10.811 42.656 28.804-52.186-14.507"/>
  </g>
</svg>
